<svg height="512pt" viewBox="0 0 512 512" width="512pt" xmlns="http://www.w3.org/2000/svg"><path d="m256 76 30-36.5625-30-39.4375c-70.304688 0-134.054688 29.597656-180.230469 75.769531l-1.175781 58.824219 54.183594-5.816406c32.59375-32.589844 77.59375-52.777344 127.222656-52.777344zm0 0" fill="#ebae56"/><path d="m128.777344 128.777344-53.007813-53.007813c-46.171875 46.175781-75.769531 109.925781-75.769531 180.230469l38.5 30 37.5-30c0-49.628906 20.1875-94.628906 52.777344-127.222656zm0 0" fill="#f8bb5e"/><path d="m128.777344 383.222656c-32.589844-32.59375-52.777344-77.59375-52.777344-127.222656h-76c0 70.304688 29.597656 134.054688 75.769531 180.230469l54.605469-24.605469zm0 0" fill="#ebae56"/><path d="m256 436c-49.628906 0-94.628906-20.1875-127.222656-52.777344l-53.007813 53.007813c46.175781 46.171875 109.925781 75.769531 180.230469 75.769531l30-30zm0 0" fill="#f8bb5e"/><path d="m256 436v76c70.304688 0 134.054688-29.597656 180.230469-75.769531l-24.605469-54.605469-28.402344 1.597656c-32.59375 32.589844-77.59375 52.777344-127.222656 52.777344zm0 0" fill="#dca050"/><path d="m383.222656 383.222656 53.007813 53.007813c46.171875-46.175781 75.769531-109.925781 75.769531-180.230469l-35.6875-30-40.3125 30c0 49.628906-20.1875 94.628906-52.777344 127.222656zm0 0" fill="#cc9249"/><path d="m436 256h76c0-70.304688-29.597656-134.054688-75.769531-180.230469l-52.730469 22.730469-.277344 30.277344c32.589844 32.59375 52.777344 77.59375 52.777344 127.222656zm0 0" fill="#dca050"/><path d="m256 76c49.628906 0 94.628906 20.1875 127.222656 52.777344l53.007813-53.007813c-46.175781-46.171875-109.925781-75.769531-180.230469-75.769531zm0 0" fill="#cc9249"/><path d="m256 61c-107.402344 0-195 87.597656-195 195s87.597656 195 195 195 195-87.597656 195-195-87.597656-195-195-195zm0 0" fill="#663325"/><path d="m451 256c0 107.402344-87.597656 195-195 195v-390c107.402344 0 195 87.597656 195 195zm0 0" fill="#582b1f"/><path d="m451 256c0-30-44.097656-44.097656-86.398438-45 29.398438-30.300781 50.398438-71.699219 29.398438-93-21.300781-21.300781-62.699219 0-93 29.398438-.902344-42.300782-15-86.398438-45-86.398438s-44.097656 44.097656-45 86.398438c-30.300781-29.398438-71.699219-50.699219-93-29.398438-21 21.300781 0 62.699219 29.398438 93-42.300782.902344-86.398438 15-86.398438 45s44.097656 44.097656 86.398438 45c-29.398438 30.300781-50.398438 71.699219-29.398438 93 21.300781 21 62.699219 0 93-29.398438.902344 42.300782 15 86.398438 45 86.398438s44.097656-44.097656 45-86.398438c30.300781 29.398438 71.699219 50.699219 93 29.398438 21-21.300781 0-62.699219-29.398438-93 42.300782-.902344 86.398438-15 86.398438-45zm0 0" fill="#f9a7b0"/><path d="m364.601562 301c29.398438 30.300781 50.398438 71.699219 29.398438 93-21.300781 21.300781-62.699219 0-93-29.398438-.902344 42.300782-15 86.398438-45 86.398438v-390c30 0 44.097656 44.097656 45 86.398438 30.300781-29.398438 71.699219-50.699219 93-29.398438 21 21.300781 0 62.699219-29.398438 93 42.300782.902344 86.398438 15 86.398438 45s-44.097656 44.097656-86.398438 45zm0 0" fill="#f68b98"/><path d="m256 181c-41.398438 0-75 33.601562-75 75s33.601562 75 75 75 75-33.601562 75-75-33.601562-75-75-75zm0 0" fill="#a8ebfa"/><path d="m331 256c0 41.398438-33.601562 75-75 75v-150c41.398438 0 75 33.601562 75 75zm0 0" fill="#76e2f8"/></svg>